# xmcd CD database file
#
# Track frame offsets:
#	150
#	19554
#	31119
#	46239
#	60654
#	79982
#	93789
#	111546
#	124539
#	141724
#	158087
#	174291
#	187254
#	203079
#	216137
#
# Disc length: 3161 seconds
#
# Revision: 0
# Processed by: cddbd v1.5.1PL2 Copyright (c) Steve Scherf et al.
# Submitted via: CDex 1.51
#
DISCID=cc0c570f
DTITLE=Various Artist - COUNTRY SONGS - Selected Specially For You
DYEAR=2006
DGENRE=Country
TTITLE0=01 - Nöggi and Lucky Boys - Harley Fieber
TTITLE1=02 - Willie Nelson - On The Road Again
TTITLE2=03 - Alabama - Reckless
TTITLE3=04 - Wade Hayes - On A Good  Night
TTITLE4=05 - Coal - Let's Build Us A Rocket
TTITLE5=06 - Dolly Parton - Joshua
TTITLE6=07 - Collin Raye - A Bible And A Bus Ticket
TTITLE7=08 - Johnny Cash - Man In Black
TTITLE8=09 - Rodney Crowell - Lovin' All Night
TTITLE9=10 - Joe Diffie - Pickup Man
TTITLE10=11 - Lorrie Morgan - Five Minutes
TTITLE11=12 - Lynn Anderson - Rose Garden
TTITLE12=13 - Doug Stone - A Jukebox With A Country Song
TTITLE13=14 - Tammy Wynette - My Man
TTITLE14=15 - Kris Kristofferson - To Beat The Devil
EXTD=YEAR: 2006
EXTT0=
EXTT1=
EXTT2=
EXTT3=
EXTT4=
EXTT5=
EXTT6=
EXTT7=
EXTT8=
EXTT9=
EXTT10=
EXTT11=
EXTT12=
EXTT13=
EXTT14=
PLAYORDER=
